<?xml version="1.0" standalone="no"?>
<!DOCTYPE svg PUBLIC "-//W3C//DTD SVG 20010904//EN"
 "http://www.w3.org/TR/2001/REC-SVG-20010904/DTD/svg10.dtd">
<svg version="1.0" xmlns="http://www.w3.org/2000/svg"
 width="200.000000pt" height="200.000000pt" viewBox="0 0 200.000000 200.000000"
 preserveAspectRatio="xMidYMid meet">

<g transform="translate(0.000000,200.000000) scale(0.100000,-0.100000)"
fill="#000000" stroke="none">
<path d="M222 1594 c-27 -18 -28 -36 -4 -57 15 -14 41 -17 139 -17 84 0 124
-4 131 -12 5 -7 42 -170 81 -361 39 -191 78 -361 86 -376 30 -60 41 -61 504
-61 457 0 472 2 506 54 16 24 37 155 95 571 13 100 12 113 -10 125 -34 18 -54
-2 -65 -67 l-11 -58 -529 0 -530 0 -21 98 c-34 158 -58 176 -239 176 -85 1
-116 -3 -133 -15z m1438 -366 c-1 -61 -58 -409 -69 -422 -12 -14 -63 -16 -425
-16 -314 0 -416 3 -429 13 -11 8 -29 73 -57 207 -22 107 -42 205 -45 218 l-5
22 515 0 515 0 0 -22z"/>
<path d="M744 641 c-116 -53 -123 -235 -11 -292 54 -28 125 -28 171 0 109 68
106 232 -4 289 -53 27 -101 28 -156 3z m139 -92 c44 -54 6 -139 -64 -139 -48
0 -78 26 -86 72 -5 32 -1 41 26 69 28 27 37 31 69 26 20 -4 45 -16 55 -28z"/>
<path d="M1420 638 c-33 -17 -51 -35 -67 -68 -61 -119 15 -242 148 -242 125 0
201 133 143 248 -24 46 -89 84 -144 84 -20 0 -56 -10 -80 -22z m143 -89 c44
-54 6 -139 -64 -139 -48 0 -78 26 -86 72 -5 32 -1 41 26 69 28 27 37 31 69 26
20 -4 45 -16 55 -28z"/>
</g>
</svg>
